<svg width="325" height="336" viewBox="0 0 325 336" fill="none" xmlns="http://www.w3.org/2000/svg">
<path d="M15.5 73.5L13.5 75.5V77.5L12.5 78.5V80.5L11.5 81.5V83.5L10.5 84.5V87.5L9.5 88.5V90.5L8.5 91.5V94.5L7.5 95.5V98.5L6.5 99.5V103.5L5.5 104.5V108.5L4.5 109.5V114.5L3.5 115.5V121.5L2.5 122.5V130.5L1.5 131.5V147.5L0.5 148.5V153.5L1.5 154.5V170.5L2.5 171.5V179.5L3.5 180.5V185.5L4.5 186.5V190.5L5.5 191.5V195.5L6.5 196.5V198.5L7.5 199.5V202.5L8.5 203.5V206.5L9.5 207.5V209.5L10.5 210.5V212.5L11.5 213.5V215.5L12.5 216.5V218.5L13.5 219.5V221.5L14.5 222.5V223.5L15.5 224.5V226.5L16.5 227.5V228.5L17.5 229.5V231.5L18.5 232.5V233.5L19.5 234.5V235.5L20.5 236.5V237.5L21.5 238.5V239.5L22.5 240.5V241.5L23.5 242.5V243.5L24.5 244.5V245.5L25.5 246.5V247.5L27.5 249.5V250.5L28.5 251.5V252.5L30.5 254.5V255.5L32.5 257.5V258.5L34.5 260.5V261.5L37.5 264.5V265.5L40.5 268.5V269.5L45.5 274.5V275.5L64.5 294.5H65.5L69.5 298.5H70.5L73.5 301.5H74.5L77.5 304.5H78.5L80.5 306.5H81.5L83.5 308.5H84.5L86.5 310.5H87.5L88.5 311.5H89.5L91.5 313.5H92.5L93.5 314.5H94.5L95.5 315.5H96.5L97.5 316.5H98.5L99.5 317.5H100.5L101.5 318.5H102.5L103.5 319.5H104.5L105.5 320.5H106.5L107.5 321.5H109.5L111.5 323.5H113.5L114.5 324.5H115.5L116.5 325.5H119.5L120.5 326.5H121.5L122.5 327.5H124.5L125.5 328.5H128.5L129.5 329.5H131.5L132.5 330.5H135.5L136.5 331.5H139.5L140.5 332.5H143.5L144.5 333.5H149.5L150.5 334.5H156.5L157.5 333.5V332.5L158.5 331.5V330.5L159.5 329.5V328.5L160.5 327.5V326.5L161.5 325.5V324.5L162.5 323.5V322.5L163.5 321.5V320.5L164.5 319.5V317.5L166.5 315.5V312.5L167.5 311.5V310.5L168.5 309.5V307.5L169.5 306.5V304.5L170.5 303.5V301.5L171.5 300.5V297.5L172.5 296.5V293.5L173.5 292.5V289.5L174.5 288.5V284.5L175.5 283.5V278.5L176.5 277.5V271.5L177.5 270.5V257.5L178.5 256.5V249.5L177.5 248.5V234.5L176.5 233.5V226.5L175.5 225.5V220.5L174.5 219.5V216.5L173.5 215.5V211.5L172.5 210.5V207.5L171.5 206.5V204.5L170.5 203.5V201.5L169.5 200.5V198.5L168.5 197.5V194.5L167.5 193.5V192.5L166.5 191.5V189.5L165.5 188.5V187.5L164.5 186.5V185.5L163.5 184.5V183.5L162.5 182.5V180.5L160.5 178.5V176.5L159.5 175.5V174.5L158.5 173.5V172.5L156.5 170.5V169.5L155.5 168.5V167.5L154.5 166.5V165.5L152.5 163.5V162.5L150.5 160.5V159.5L148.5 157.5V156.5L145.5 153.5V152.5L143.5 150.5V149.5L139.5 145.5V144.5L134.5 139.5V138.5L117.5 121.5H116.5L111.5 116.5H110.5L107.5 113.5H106.5L103.5 110.5H102.5L100.5 108.5H99.5L97.5 106.5H96.5L94.5 104.5H93.5L91.5 102.5H90.5L88.5 100.5H87.5L86.5 99.5H85.5L84.5 98.5H83.5L82.5 97.5H81.5L79.5 95.5H78.5L77.5 94.5H76.5L75.5 93.5H74.5L73.5 92.5H72.5L71.5 91.5H70.5L69.5 90.5H67.5L65.5 88.5H63.5L62.5 87.5H61.5L60.5 86.5H58.5L56.5 84.5H53.5L52.5 83.5H51.5L50.5 82.5H48.5L47.5 81.5H45.5L44.5 80.5H42.5L41.5 79.5H39.5L38.5 78.5H36.5L35.5 77.5H33.5L32.5 76.5H29.5L28.5 75.5H25.5L24.5 74.5H19.5L18.5 73.5H15.5Z" fill="#166FAA" stroke="#166FAA"/>
<path d="M307.5 72.5L306.5 73.5H303.5L302.5 74.5H300.5L299.5 75.5H296.5L295.5 76.5H292.5L291.5 77.5H289.5L288.5 78.5H285.5L284.5 79.5H282.5L281.5 80.5H279.5L278.5 81.5H276.5L275.5 82.5H273.5L272.5 83.5H271.5L270.5 84.5H268.5L267.5 85.5H266.5L265.5 86.5H263.5L262.5 87.5H261.5L260.5 88.5H259.5L258.5 89.5H257.5L256.5 90.5H255.5L254.5 91.5H253.5L252.5 92.5H251.5L250.5 93.5H249.5L248.5 94.5H247.5L245.5 96.5H243.5L241.5 98.5H240.5L239.5 99.5H238.5L237.5 100.5H236.5L234.5 102.5H233.5L231.5 104.5H230.5L228.5 106.5H227.5L225.5 108.5H224.5L222.5 110.5H221.5L218.5 113.5H217.5L212.5 118.5H211.5L193.5 136.5V137.5L188.5 142.5V143.5L185.5 146.5V147.5L183.5 149.5V150.5L181.5 152.5V153.5L179.5 155.5V156.5L177.5 158.5V159.5L175.5 161.5V162.5L174.5 163.5V164.5L172.5 166.5V170.5L173.5 171.5V173.5L175.5 175.5V176.5L176.5 177.5V178.5L177.5 179.5V181.5L179.5 183.5V185.5L180.5 186.5V187.5L181.5 188.5V190.5L182.5 191.5V193.5L183.5 194.5V196.5L184.5 197.5V199.5L185.5 200.5V203.5L186.5 204.5V207.5L187.5 208.5V211.5L188.5 212.5V216.5L189.5 217.5V222.5L190.5 223.5V231.5L191.5 232.5V242.5L192.5 243.5V257.5L191.5 258.5V271.5L190.5 272.5V278.5L189.5 279.5V284.5L188.5 285.5V289.5L187.5 290.5V294.5L186.5 295.5V298.5L185.5 299.5V301.5L184.5 302.5V305.5L183.5 306.5V308.5L182.5 309.5V311.5L181.5 312.5V314.5L180.5 315.5V316.5L179.5 317.5V319.5L178.5 320.5V321.5L177.5 322.5V324.5L175.5 326.5V328.5L174.5 329.5V330.5L173.5 331.5V332.5L172.5 333.5L173.5 334.5V335.5H174.5L175.5 334.5H180.5L181.5 333.5H185.5L186.5 332.5H190.5L191.5 331.5H194.5L195.5 330.5H197.5L198.5 329.5H201.5L202.5 328.5H204.5L205.5 327.5H207.5L208.5 326.5H209.5L210.5 325.5H213.5L215.5 323.5H217.5L218.5 322.5H219.5L220.5 321.5H222.5L224.5 319.5H226.5L227.5 318.5H228.5L229.5 317.5H230.5L232.5 315.5H233.5L234.5 314.5H235.5L236.5 313.5H237.5L239.5 311.5H240.5L242.5 309.5H243.5L245.5 307.5H246.5L248.5 305.5H249.5L252.5 302.5H253.5L257.5 298.5H258.5L262.5 294.5H263.5L279.5 278.5V277.5L284.5 272.5V271.5L287.5 268.5V267.5L290.5 264.5V263.5L292.5 261.5V260.5L294.5 258.5V257.5L296.5 255.5V254.5L297.5 253.5V252.5L299.5 250.5V249.5L300.5 248.5V247.5L301.5 246.5V245.5L302.5 244.5V243.5L304.5 241.5V239.5L305.5 238.5V237.5L306.5 236.5V235.5L307.5 234.5V233.5L308.5 232.5V230.5L309.5 229.5V228.5L310.5 227.5V225.5L311.5 224.5V223.5L312.5 222.5V220.5L313.5 219.5V218.5L314.5 217.5V214.5L315.5 213.5V211.5L316.5 210.5V207.5L317.5 206.5V204.5L318.5 203.5V200.5L319.5 199.5V195.5L320.5 194.5V191.5L321.5 190.5V184.5L322.5 183.5V175.5L323.5 174.5V154.5L324.5 153.5V151.5L323.5 150.5V133.5L322.5 132.5V123.5L321.5 122.5V117.5L320.5 116.5V111.5L319.5 110.5V106.5L318.5 105.5V101.5L317.5 100.5V97.5L316.5 96.5V93.5L315.5 92.5V89.5L314.5 88.5V86.5L313.5 85.5V83.5L312.5 82.5V80.5L311.5 79.5V77.5L310.5 76.5V74.5L309.5 73.5H308.5L307.5 72.5Z" fill="#69B861" stroke="#69B861"/>
<path d="M160.5 0.5L158.5 2.5H157.5L154.5 5.5H153.5L149.5 9.5H148.5L142.5 15.5H141.5L124.5 32.5V33.5L118.5 39.5V40.5L114.5 44.5V45.5L111.5 48.5V49.5L109.5 51.5V52.5L107.5 54.5V55.5L105.5 57.5V58.5L103.5 60.5V61.5L102.5 62.5V63.5L100.5 65.5V66.5L99.5 67.5V68.5L97.5 70.5V71.5L96.5 72.5V73.5L95.5 74.5V75.5L94.5 76.5V77.5L93.5 78.5V79.5L92.5 80.5V81.5L91.5 82.5V86.5H92.5L94.5 88.5H95.5L97.5 90.5H98.5L100.5 92.5H101.5L102.5 93.5H103.5L105.5 95.5H106.5L109.5 98.5H110.5L113.5 101.5H114.5L117.5 104.5H118.5L122.5 108.5H123.5L146.5 131.5V132.5L151.5 137.5V138.5L154.5 141.5V142.5L157.5 145.5V146.5L160.5 149.5V150.5L161.5 151.5V152.5L162.5 151.5H163.5L164.5 152.5V151.5L167.5 148.5V147.5L170.5 144.5V143.5L173.5 140.5V139.5L176.5 136.5V135.5L181.5 130.5V129.5L204.5 106.5H205.5L210.5 101.5H211.5L215.5 97.5H216.5L218.5 95.5H219.5L221.5 93.5H222.5L224.5 91.5H225.5L226.5 90.5H227.5L229.5 88.5H230.5L231.5 87.5H232.5V85.5L233.5 84.5L232.5 83.5V81.5L231.5 80.5V79.5L230.5 78.5V77.5L229.5 76.5V75.5L228.5 74.5V73.5L227.5 72.5V71.5L226.5 70.5V69.5L225.5 68.5V67.5L224.5 66.5V65.5L222.5 63.5V62.5L221.5 61.5V60.5L219.5 58.5V57.5L217.5 55.5V54.5L215.5 52.5V51.5L213.5 49.5V48.5L210.5 45.5V44.5L206.5 40.5V39.5L200.5 33.5V32.5L184.5 16.5H183.5L177.5 10.5H176.5L172.5 6.5H171.5L168.5 3.5H167.5L164.5 0.5H160.5Z" fill="#1B98CB" stroke="#1B98CB"/>
</svg>
