<svg xmlns="http://www.w3.org/2000/svg" viewBox="0 0 256 256" role="img" aria-label="OpenAI logo">
  <path fill="#10a37f" d="M224.6 113.5a59.4 59.4 0 0 0-7.8-56.5 60.6 60.6 0 0 0-64.8-24.4 59.5 59.5 0 0 0-101.4 31 60.6 60.6 0 0 0-42.1 99.2 59.4 59.4 0 0 0 7.8 56.5 60.6 60.6 0 0 0 64.8 24.4 59.5 59.5 0 0 0 101.4-31 60.6 60.6 0 0 0 42.1-99.2ZM81.5 228.1a45 45 0 0 1-47.1-18.2 44.2 44.2 0 0 1-6.1-37.6l48.2 27.8a7.2 7.2 0 0 0 7.2 0l58.2-33.6v24.1l-48.1 27.8a44.9 44.9 0 0 1-12.3 9.7Zm-61-78.1a45.1 45.1 0 0 1 25.2-72l48.1 27.8a7.2 7.2 0 0 0 7.2 0l58.2-33.6 20.9 12.1-99.7 57.6a7.2 7.2 0 0 0-3.6 6.2v55.6L20.5 150Zm45.1-82.5a45 45 0 0 1 77.2-28.9v55.6a7.2 7.2 0 0 0 3.6 6.2l58.2 33.6v24.1L104.9 100.5a7.2 7.2 0 0 0-7.2 0L49.5 128.3a44.7 44.7 0 0 1 16.1-60.8Zm92.2 88.7-22.9-13.2v-26.4l22.9-13.2 22.9 13.2V143l-22.9 13.2Zm55.1 32.4a45 45 0 0 1-77.2 28.9v-55.6a7.2 7.2 0 0 0-3.6-6.2l-58.2-33.6V98l99.7 57.6a7.2 7.2 0 0 0 7.2 0l48.2-27.8a44.7 44.7 0 0 1-16.1 60.8Zm-2.2-44.6-48.1-27.8a7.2 7.2 0 0 0-7.2 0L97.2 149.8 76.3 137.7 176 80.1a7.2 7.2 0 0 0 3.6-6.2V18.3a45 45 0 0 1 47.1 18.2 44.2 44.2 0 0 1 6.1 37.6l-48.2-27.8a7.2 7.2 0 0 0-7.2 0l-58.2 33.6v24.1l99.7-57.6a45.1 45.1 0 0 1-8.2 97.6Z"/>
</svg>
